<?xml version="1.0" encoding="UTF-8" standalone="no"?>
<!-- Created with Inkscape (http://www.inkscape.org/) -->

<svg
   width="210mm"
   height="297mm"
   viewBox="0 0 210 297"
   version="1.1"
   id="svg735"
   inkscape:version="1.2.2 (b0a84865, 2022-12-01)"
   sodipodi:docname="schlitten.svg"
   xmlns:inkscape="http://www.inkscape.org/namespaces/inkscape"
   xmlns:sodipodi="http://sodipodi.sourceforge.net/DTD/sodipodi-0.dtd"
   xmlns="http://www.w3.org/2000/svg"
   xmlns:svg="http://www.w3.org/2000/svg">
  <sodipodi:namedview
     id="namedview737"
     pagecolor="#ffffff"
     bordercolor="#000000"
     borderopacity="0.25"
     inkscape:showpageshadow="2"
     inkscape:pageopacity="0.0"
     inkscape:pagecheckerboard="0"
     inkscape:deskcolor="#d1d1d1"
     inkscape:document-units="mm"
     showgrid="false"
     inkscape:zoom="0.5946522"
     inkscape:cx="-64.743727"
     inkscape:cy="561.67286"
     inkscape:window-width="1836"
     inkscape:window-height="674"
     inkscape:window-x="2313"
     inkscape:window-y="321"
     inkscape:window-maximized="0"
     inkscape:current-layer="layer1" />
  <defs
     id="defs732" />
  <g
     inkscape:label="Layer 1"
     inkscape:groupmode="layer"
     id="layer1">
    <g
       id="g26988-7-9"
       transform="rotate(90,241.20388,530.36352)">
      <g
         id="g15747-4-7-6-7-5-2"
         transform="translate(-948.59233,271.27164)"
         style="fill:#767676;fill-opacity:1;stroke:none">
        <g
           id="p-2-5-5-3-6-8-9-9-2"
           style="fill:#767676;fill-opacity:1;stroke:none;stroke-linecap:round;stroke-linejoin:round"
           transform="rotate(-90,584.16779,-102.28804)" />
        <g
           id="p-2-5-8-9-9-1-2-7-4-8"
           style="fill:#767676;fill-opacity:1;stroke:none;stroke-linecap:round;stroke-linejoin:round"
           transform="matrix(0,-1,-1,0,988.41805,481.89085)">
          <path
             d="m 56.4,224.99939 h -3 -11 c -0.055,0 -0.1,-0.045 -0.1,-0.1 v -2.9 c 0,-0.1 0.1,0 0,0 h -5.8 c -0.1,0 0,-0.1 0,0 v 2.9 c 0,0.055 -0.045,0.1 -0.1,0.1 h -6 c -0.055,0 -0.1,-0.045 -0.1,-0.1 v -2.9 c 0,-0.1 0.1,0 0,0 h -5.8 c -0.1,0 0,-0.1 0,0 v 2.9 c 0,0.055 -0.045,0.1 -0.1,0.1 h -11 -3 c -0.055,0 -0.1,-0.045 -0.1,-0.1 v -2.80041 -7.09939 c 0,-0.055 0.045,-0.1 0.1,-0.1 h 2.9 c 0.1,0 0,0.1 0,0 v -5.8 c 0,-0.1 0.1,0 0,0 h -2.9 c -0.055,0 -0.1,-0.045 -0.1,-0.1 v -6 c 0,-0.055 0.045,-0.1 0.1,-0.1 h 2.9 c 0.1,0 0,0.1 0,0 v -5.8 c 0,-0.1 0.1,0 0,0 h -2.9 c -0.055,0 -0.1,-0.045 -0.1,-0.1 v -6 c 0,-0.055 0.045,-0.1 0.1,-0.1 h 2.9 c 0.1,0 0,0.1 0,0 v -5.8 c 0,-0.1 0.1,0 0,0 h -2.9 c -0.055,0 -0.1,-0.045 -0.1,-0.1 v -6 c 0,-0.055 0.045,-0.1 0.1,-0.1 h 2.9 c 0.1,0 0,0.1 0,0 v -5.8 c 0,-0.1 0.1,0 0,0 h -2.9 c -0.055,0 -0.1,-0.045 -0.1,-0.1 v -6 c 0,-0.055 0.045,-0.1 0.1,-0.1 h 2.9 c 0.1,0 0,0.1 0,0 v -5.8 c 0,-0.1 0.1,0 0,0 h -2.9 c -0.055,0 -0.1,-0.045 -0.1,-0.1 v -7.10129 l 0.0111,-2.79973 c 0,-0.055 0.045,-0.1 0.1,-0.1 h 3 11 c 0.055,0 0.1,0.045 0.1,0.1 v 2.9 c 0,0.1 -0.1,0 0,0 h 5.8 c 0.1,0 0,0.1 0,0 v -2.9 c 0,-0.055 0.045,-0.1 0.1,-0.1 h 6 c 0.055,0 0.1,0.045 0.1,0.1 v 2.9 c 0,0.1 -0.1,0 0,0 h 5.8 c 0.1,0 0,0.1 0,0 v -2.9 c 0,-0.055 0.045,-0.1 0.1,-0.1 h 11 l 1.0137,0.001 h 9.49445 c 2.40721,0 4.34502,1.9159 4.34502,4.2949 v 4.7651 l -3.29026,1.5471 c -0.58765,0.098 -1.18763,-0.065 -1.64278,-0.4449 -0.45414,-0.38 -0.71607,-0.939 -0.71607,-1.527 v -0.6362 c 0,-1.385 -1.12681,-2.5001 -2.52767,-2.5001 -1.40085,0 -2.52925,1.1151 -2.52925,2.5001 v 4.268 c -0.62582,0.01 -1.12689,0.5096 -1.12689,1.1307 v 47.2043 c 0,0.6211 0.50107,1.1212 1.12689,1.1307 v 4.2674 c 0,1.385 1.1284,2.4991 2.52925,2.4991 1.40085,0 2.52767,-1.1141 2.52767,-2.4991 v -0.6371 c 0,-0.588 0.26193,-1.1471 0.71607,-1.5271 0.45515,-0.38 1.05513,-0.5429 1.64278,-0.4449 l 3.29026,1.5472 v 4.7656 c 0,2.38 -1.93781,4.2964 -4.34502,4.2964 H 54.4248"
             stroke="#000000"
             stroke-width="0.2"
             id="path12715-5-0-6-5-6-3-9-5-9"
             sodipodi:nodetypes="ccsssssssssssssssscsccssssssssssssssssssssssssssssssssssssssssccscssssssssssssssssccsscccsssscsscsssscccssc"
             style="fill:#767676;fill-opacity:1;stroke:none" />
        </g>
      </g>
      <g
         id="g7931-5-8-1-3-1-1-0-2-6-7"
         transform="translate(-331.46573,452.24677)"
         style="stroke:#000000;stroke-opacity:1">
        <path
           d="m 159.29144,247.23185 h -2.85 c -0.15,0 0,0.15 0,0 v -2.7 c 0,-0.15 -0.15,0 0,0 h 5.7 c 0.15,0 0,-0.15 0,0 v 2.7 c 0,0.15 0.15,0 0,0 z"
           stroke="#0000ff"
           stroke-width="0.3"
           id="path7921-2-7-5-9-7-4-4-9-2-3"
           style="fill:none;stroke:#000000;stroke-linecap:round;stroke-linejoin:round;stroke-opacity:1" />
        <path
           d="m 171.29144,247.23185 h -2.85 c -0.15,0 0,0.15 0,0 v -2.7 c 0,-0.15 -0.15,0 0,0 h 5.7 c 0.15,0 0,-0.15 0,0 v 2.7 c 0,0.15 0.15,0 0,0 z"
           stroke="#0000ff"
           stroke-width="0.3"
           id="path7923-2-8-2-7-4-9-4-0-6-6"
           style="fill:none;stroke:#000000;stroke-linecap:round;stroke-linejoin:round;stroke-opacity:1" />
        <path
           d="m 183.29144,247.23185 h -2.85 c -0.15,0 0,0.15 0,0 v -2.7 c 0,-0.15 -0.15,0 0,0 h 5.7 c 0.15,0 0,-0.15 0,0 v 2.7 c 0,0.15 0.15,0 0,0 z"
           stroke="#0000ff"
           stroke-width="0.3"
           id="path7925-6-7-1-7-51-6-3-1-0-1"
           style="fill:none;stroke:#000000;stroke-linecap:round;stroke-linejoin:round;stroke-opacity:1" />
        <path
           d="m 195.29144,247.23185 h -2.85 c -0.15,0 0,0.15 0,0 v -2.7 c 0,-0.15 0,0 0,0 h 5.7 c 0.15,0 0,-0.15 0,0 v 2.7 c 0,0.15 0.15,0 0,0 z"
           stroke="#0000ff"
           stroke-width="0.3"
           id="path7927-67-7-1-9-4-4-3-5-8-2"
           style="fill:none;stroke:#000000;stroke-linecap:round;stroke-linejoin:round;stroke-opacity:1"
           sodipodi:nodetypes="csssassssc" />
        <path
           d="m 207.29144,247.23185 h -2.85 c -0.15,0 0,0.15 0,0 v -2.7 c 0,-0.15 -0.15,0 0,0 h 5.7 c 0.15,0 0,-0.15 0,0 v 2.7 c 0,0.15 0.15,0 0,0 z"
           stroke="#0000ff"
           stroke-width="0.3"
           id="path7929-8-4-0-5-6-2-2-1-9-9"
           style="fill:none;stroke:#000000;stroke-linecap:round;stroke-linejoin:round;stroke-opacity:1"
           sodipodi:nodetypes="cssssssssc" />
      </g>
    </g>
  </g>
</svg>
